<svg width="45" height="45" viewBox="0 0 45 45" fill="none" xmlns="http://www.w3.org/2000/svg">
<path d="M30 33.75C30.9946 33.75 31.9484 34.1451 32.6516 34.8484C33.3549 35.5516 33.75 36.5054 33.75 37.5C33.75 38.4946 33.3549 39.4484 32.6516 40.1516C31.9484 40.8549 30.9946 41.25 30 41.25C29.0054 41.25 28.0516 40.8549 27.3484 40.1516C26.6451 39.4484 26.25 38.4946 26.25 37.5C26.25 36.5054 26.6451 35.5516 27.3484 34.8484C28.0516 34.1451 29.0054 33.75 30 33.75ZM30 35.625C29.5027 35.625 29.0258 35.8225 28.6742 36.1742C28.3225 36.5258 28.125 37.0027 28.125 37.5C28.125 37.9973 28.3225 38.4742 28.6742 38.8258C29.0258 39.1775 29.5027 39.375 30 39.375C30.4973 39.375 30.9742 39.1775 31.3258 38.8258C31.6775 38.4742 31.875 37.9973 31.875 37.5C31.875 37.0027 31.6775 36.5258 31.3258 36.1742C30.9742 35.8225 30.4973 35.625 30 35.625ZM13.125 33.75C14.1196 33.75 15.0734 34.1451 15.7766 34.8484C16.4799 35.5516 16.875 36.5054 16.875 37.5C16.875 38.4946 16.4799 39.4484 15.7766 40.1516C15.0734 40.8549 14.1196 41.25 13.125 41.25C12.1304 41.25 11.1766 40.8549 10.4733 40.1516C9.77009 39.4484 9.375 38.4946 9.375 37.5C9.375 36.5054 9.77009 35.5516 10.4733 34.8484C11.1766 34.1451 12.1304 33.75 13.125 33.75ZM13.125 35.625C12.6277 35.625 12.1508 35.8225 11.7992 36.1742C11.4475 36.5258 11.25 37.0027 11.25 37.5C11.25 37.9973 11.4475 38.4742 11.7992 38.8258C12.1508 39.1775 12.6277 39.375 13.125 39.375C13.6223 39.375 14.0992 39.1775 14.4508 38.8258C14.8025 38.4742 15 37.9973 15 37.5C15 37.0027 14.8025 36.5258 14.4508 36.1742C14.0992 35.8225 13.6223 35.625 13.125 35.625ZM33.75 11.25H8.00625L12.7875 22.5H28.125C28.7437 22.5 29.2875 22.2 29.625 21.75L35.25 14.25C35.4937 13.9312 35.625 13.5375 35.625 13.125C35.625 12.6277 35.4275 12.1508 35.0758 11.7992C34.7242 11.4475 34.2473 11.25 33.75 11.25ZM28.125 24.375H12.8812L11.4375 27.3L11.25 28.125C11.25 28.6223 11.4475 29.0992 11.7992 29.4508C12.1508 29.8025 12.6277 30 13.125 30H33.75V31.875H13.125C12.1304 31.875 11.1766 31.4799 10.4733 30.7766C9.77009 30.0734 9.375 29.1196 9.375 28.125C9.37444 27.4888 9.53575 26.8629 9.84375 26.3062L11.1937 23.55L4.3875 7.5H1.875V5.625H5.625L7.21875 9.375H33.75C34.7446 9.375 35.6984 9.77009 36.4016 10.4733C37.1049 11.1766 37.5 12.1304 37.5 13.125C37.5 14.0625 37.1812 14.85 36.6562 15.4875L31.2 22.7812C30.525 23.7375 29.4 24.375 28.125 24.375Z" fill="white"/>
</svg>
