<svg width="45" height="45" viewBox="0 0 45 45" fill="none" xmlns="http://www.w3.org/2000/svg">
<path d="M19.1875 6C22.4198 6 25.5198 7.28404 27.8054 9.56964C30.091 11.8552 31.375 14.9552 31.375 18.1875C31.375 21.225 30.2687 24 28.4312 26.1187L39.025 36.7125L37.6938 38.0437L27.1 27.45C24.8973 29.3402 22.09 30.378 19.1875 30.375C15.9552 30.375 12.8552 29.091 10.5696 26.8054C8.28404 24.5198 7 21.4198 7 18.1875C7 14.9552 8.28404 11.8552 10.5696 9.56964C12.8552 7.28404 15.9552 6 19.1875 6ZM19.1875 7.875C16.4525 7.875 13.8294 8.96149 11.8955 10.8955C9.96149 12.8294 8.875 15.4525 8.875 18.1875C8.875 20.9225 9.96149 23.5456 11.8955 25.4795C13.8294 27.4135 16.4525 28.5 19.1875 28.5C20.5418 28.5 21.8828 28.2333 23.1339 27.715C24.3851 27.1968 25.5219 26.4371 26.4795 25.4795C27.4371 24.5219 28.1968 23.3851 28.715 22.1339C29.2333 20.8828 29.5 19.5418 29.5 18.1875C29.5 16.8332 29.2333 15.4922 28.715 14.2411C28.1968 12.9899 27.4371 11.8531 26.4795 10.8955C25.5219 9.93786 24.3851 9.17824 23.1339 8.65999C21.8828 8.14174 20.5418 7.875 19.1875 7.875Z" fill="white"/>
</svg>
